<svg width="21" height="26" viewBox="0 0 21 26" fill="none" xmlns="http://www.w3.org/2000/svg">
<path d="M19.36 21.88C19.86 21.6 20.04 22.02 19.68 22.34C16.52 25.22 13.72 22.68 11.18 20.68C10.56 20.86 9.9 20.98 9.2 20.98C0.92 20.98 1.66 3.44 7.18 1.9C7.74 0.579999 8.92 0.0399981 10.18 0.0399981C17.6 -1.43051e-06 18.98 14.94 13.16 19.6C15.38 21.22 17.4 22.98 19.36 21.88ZM9.2 20.62C9.72 20.62 10.2 20.5 10.66 20.28C9.58 19.46 8.56 18.82 7.58 18.82C5.78 18.8 7.2 20.62 9.2 20.62ZM8.24 17.44C9.64 17.44 10.96 18.1 12.2 18.94C15.92 14.1 15.36 0.54 9.9 0.64C8.92 0.64 8 1.08 7.6 1.82C7.98 1.76 8.38 1.8 8.8 1.9L8.7 4.02C8.18 3.88 7.7 4.04 7.28 4.38C7.8 6.96 10.5 6.7 10.72 4.5C10.66 4.54 10.58 4.56 10.48 4.56C10.16 4.56 9.9 4.3 9.9 3.96C9.9 3.64 10.16 3.38 10.48 3.38C10.86 3.38 11.06 3.66 11.08 3.98C11.28 6.96 7.74 7.66 6.98 4.68C4.78 7.06 3.92 14.88 6.06 18.62C6.3 17.98 7.04 17.46 8.24 17.44Z" fill="#FFA000"/>
<path d="M19.36 21.88C19.86 21.6 20.04 22.02 19.68 22.34C16.52 25.22 13.72 22.68 11.18 20.68C10.56 20.86 9.9 20.98 9.2 20.98C0.92 20.98 1.66 3.44 7.18 1.9C7.74 0.579999 8.92 0.0399981 10.18 0.0399981C17.6 -1.43051e-06 18.98 14.94 13.16 19.6C15.38 21.22 17.4 22.98 19.36 21.88ZM9.2 20.62C9.72 20.62 10.2 20.5 10.66 20.28C9.58 19.46 8.56 18.82 7.58 18.82C5.78 18.8 7.2 20.62 9.2 20.62ZM8.24 17.44C9.64 17.44 10.96 18.1 12.2 18.94C15.92 14.1 15.36 0.54 9.9 0.64C8.92 0.64 8 1.08 7.6 1.82C7.98 1.76 8.38 1.8 8.8 1.9L8.7 4.02C8.18 3.88 7.7 4.04 7.28 4.38C7.8 6.96 10.5 6.7 10.72 4.5C10.66 4.54 10.58 4.56 10.48 4.56C10.16 4.56 9.9 4.3 9.9 3.96C9.9 3.64 10.16 3.38 10.48 3.38C10.86 3.38 11.06 3.66 11.08 3.98C11.28 6.96 7.74 7.66 6.98 4.68C4.78 7.06 3.92 14.88 6.06 18.62C6.3 17.98 7.04 17.46 8.24 17.44Z" fill="url(#paint0_radial_34_15)"/>
<path d="M19.36 21.88C19.86 21.6 20.04 22.02 19.68 22.34C16.52 25.22 13.72 22.68 11.18 20.68C10.56 20.86 9.9 20.98 9.2 20.98C0.92 20.98 1.66 3.44 7.18 1.9C7.74 0.579999 8.92 0.0399981 10.18 0.0399981C17.6 -1.43051e-06 18.98 14.94 13.16 19.6C15.38 21.22 17.4 22.98 19.36 21.88ZM9.2 20.62C9.72 20.62 10.2 20.5 10.66 20.28C9.58 19.46 8.56 18.82 7.58 18.82C5.78 18.8 7.2 20.62 9.2 20.62ZM8.24 17.44C9.64 17.44 10.96 18.1 12.2 18.94C15.92 14.1 15.36 0.54 9.9 0.64C8.92 0.64 8 1.08 7.6 1.82C7.98 1.76 8.38 1.8 8.8 1.9L8.7 4.02C8.18 3.88 7.7 4.04 7.28 4.38C7.8 6.96 10.5 6.7 10.72 4.5C10.66 4.54 10.58 4.56 10.48 4.56C10.16 4.56 9.9 4.3 9.9 3.96C9.9 3.64 10.16 3.38 10.48 3.38C10.86 3.38 11.06 3.66 11.08 3.98C11.28 6.96 7.74 7.66 6.98 4.68C4.78 7.06 3.92 14.88 6.06 18.62C6.3 17.98 7.04 17.46 8.24 17.44Z" fill="white"/>
<path d="M19.36 21.88C19.86 21.6 20.04 22.02 19.68 22.34C16.52 25.22 13.72 22.68 11.18 20.68C10.56 20.86 9.9 20.98 9.2 20.98C0.92 20.98 1.66 3.44 7.18 1.9C7.74 0.579999 8.92 0.0399981 10.18 0.0399981C17.6 -1.43051e-06 18.98 14.94 13.16 19.6C15.38 21.22 17.4 22.98 19.36 21.88ZM9.2 20.62C9.72 20.62 10.2 20.5 10.66 20.28C9.58 19.46 8.56 18.82 7.58 18.82C5.78 18.8 7.2 20.62 9.2 20.62ZM8.24 17.44C9.64 17.44 10.96 18.1 12.2 18.94C15.92 14.1 15.36 0.54 9.9 0.64C8.92 0.64 8 1.08 7.6 1.82C7.98 1.76 8.38 1.8 8.8 1.9L8.7 4.02C8.18 3.88 7.7 4.04 7.28 4.38C7.8 6.96 10.5 6.7 10.72 4.5C10.66 4.54 10.58 4.56 10.48 4.56C10.16 4.56 9.9 4.3 9.9 3.96C9.9 3.64 10.16 3.38 10.48 3.38C10.86 3.38 11.06 3.66 11.08 3.98C11.28 6.96 7.74 7.66 6.98 4.68C4.78 7.06 3.92 14.88 6.06 18.62C6.3 17.98 7.04 17.46 8.24 17.44Z" fill="url(#paint1_radial_34_15)"/>
<defs>
<radialGradient id="paint0_radial_34_15" cx="0" cy="0" r="1" gradientUnits="userSpaceOnUse" gradientTransform="translate(12 8.5) scale(11.4031 19.6387)">
<stop stop-color="#FBB809"/>
<stop offset="1" stop-color="#8B590C"/>
</radialGradient>
<radialGradient id="paint1_radial_34_15" cx="0" cy="0" r="1" gradientUnits="userSpaceOnUse" gradientTransform="translate(12 8.5) scale(11.4031 19.6387)">
<stop stop-color="#FBB809"/>
<stop offset="1" stop-color="#8B590C"/>
</radialGradient>
</defs>
</svg>
