<svg width="275" height="275" viewBox="0 0 275 275" fill="none" xmlns="http://www.w3.org/2000/svg">
<rect width="275" height="275" fill="black"/>
<path d="M168.352 164.816C169.952 163.92 170.528 165.264 169.376 166.288C159.264 175.504 150.304 167.376 142.176 160.976C140.192 161.552 138.08 161.936 135.84 161.936C109.344 161.936 111.712 105.808 129.376 100.88C131.168 96.656 134.944 94.928 138.976 94.928C162.72 94.8 167.136 142.608 148.512 157.52C155.616 162.704 162.08 168.336 168.352 164.816ZM135.84 160.784C137.504 160.784 139.04 160.4 140.512 159.696C137.056 157.072 133.792 155.024 130.656 155.024C124.896 154.96 129.44 160.784 135.84 160.784ZM132.768 150.608C137.248 150.608 141.472 152.72 145.44 155.408C157.344 139.92 155.552 96.528 138.08 96.848C134.944 96.848 132 98.256 130.72 100.624C131.936 100.432 133.216 100.56 134.56 100.88L134.24 107.664C132.576 107.216 131.04 107.728 129.696 108.816C131.36 117.072 140 116.24 140.704 109.2C140.512 109.328 140.256 109.392 139.936 109.392C138.912 109.392 138.08 108.56 138.08 107.472C138.08 106.448 138.912 105.616 139.936 105.616C141.152 105.616 141.792 106.512 141.856 107.536C142.496 117.072 131.168 119.312 128.736 109.776C121.696 117.392 118.944 142.416 125.792 154.384C126.56 152.336 128.928 150.672 132.768 150.608Z" fill="#FFA000"/>
<path d="M168.352 164.816C169.952 163.92 170.528 165.264 169.376 166.288C159.264 175.504 150.304 167.376 142.176 160.976C140.192 161.552 138.08 161.936 135.84 161.936C109.344 161.936 111.712 105.808 129.376 100.88C131.168 96.656 134.944 94.928 138.976 94.928C162.72 94.8 167.136 142.608 148.512 157.52C155.616 162.704 162.08 168.336 168.352 164.816ZM135.84 160.784C137.504 160.784 139.04 160.4 140.512 159.696C137.056 157.072 133.792 155.024 130.656 155.024C124.896 154.96 129.44 160.784 135.84 160.784ZM132.768 150.608C137.248 150.608 141.472 152.72 145.44 155.408C157.344 139.92 155.552 96.528 138.08 96.848C134.944 96.848 132 98.256 130.72 100.624C131.936 100.432 133.216 100.56 134.56 100.88L134.24 107.664C132.576 107.216 131.04 107.728 129.696 108.816C131.36 117.072 140 116.24 140.704 109.2C140.512 109.328 140.256 109.392 139.936 109.392C138.912 109.392 138.08 108.56 138.08 107.472C138.08 106.448 138.912 105.616 139.936 105.616C141.152 105.616 141.792 106.512 141.856 107.536C142.496 117.072 131.168 119.312 128.736 109.776C121.696 117.392 118.944 142.416 125.792 154.384C126.56 152.336 128.928 150.672 132.768 150.608Z" fill="url(#paint0_radial_107_5)"/>
<path d="M168.352 164.816C169.952 163.92 170.528 165.264 169.376 166.288C159.264 175.504 150.304 167.376 142.176 160.976C140.192 161.552 138.08 161.936 135.84 161.936C109.344 161.936 111.712 105.808 129.376 100.88C131.168 96.656 134.944 94.928 138.976 94.928C162.72 94.8 167.136 142.608 148.512 157.52C155.616 162.704 162.08 168.336 168.352 164.816ZM135.84 160.784C137.504 160.784 139.04 160.4 140.512 159.696C137.056 157.072 133.792 155.024 130.656 155.024C124.896 154.96 129.44 160.784 135.84 160.784ZM132.768 150.608C137.248 150.608 141.472 152.72 145.44 155.408C157.344 139.92 155.552 96.528 138.08 96.848C134.944 96.848 132 98.256 130.72 100.624C131.936 100.432 133.216 100.56 134.56 100.88L134.24 107.664C132.576 107.216 131.04 107.728 129.696 108.816C131.36 117.072 140 116.24 140.704 109.2C140.512 109.328 140.256 109.392 139.936 109.392C138.912 109.392 138.08 108.56 138.08 107.472C138.08 106.448 138.912 105.616 139.936 105.616C141.152 105.616 141.792 106.512 141.856 107.536C142.496 117.072 131.168 119.312 128.736 109.776C121.696 117.392 118.944 142.416 125.792 154.384C126.56 152.336 128.928 150.672 132.768 150.608Z" fill="white"/>
<path d="M168.352 164.816C169.952 163.92 170.528 165.264 169.376 166.288C159.264 175.504 150.304 167.376 142.176 160.976C140.192 161.552 138.08 161.936 135.84 161.936C109.344 161.936 111.712 105.808 129.376 100.88C131.168 96.656 134.944 94.928 138.976 94.928C162.72 94.8 167.136 142.608 148.512 157.52C155.616 162.704 162.08 168.336 168.352 164.816ZM135.84 160.784C137.504 160.784 139.04 160.4 140.512 159.696C137.056 157.072 133.792 155.024 130.656 155.024C124.896 154.96 129.44 160.784 135.84 160.784ZM132.768 150.608C137.248 150.608 141.472 152.72 145.44 155.408C157.344 139.92 155.552 96.528 138.08 96.848C134.944 96.848 132 98.256 130.72 100.624C131.936 100.432 133.216 100.56 134.56 100.88L134.24 107.664C132.576 107.216 131.04 107.728 129.696 108.816C131.36 117.072 140 116.24 140.704 109.2C140.512 109.328 140.256 109.392 139.936 109.392C138.912 109.392 138.08 108.56 138.08 107.472C138.08 106.448 138.912 105.616 139.936 105.616C141.152 105.616 141.792 106.512 141.856 107.536C142.496 117.072 131.168 119.312 128.736 109.776C121.696 117.392 118.944 142.416 125.792 154.384C126.56 152.336 128.928 150.672 132.768 150.608Z" fill="url(#paint1_radial_107_5)"/>
<defs>
<radialGradient id="paint0_radial_107_5" cx="0" cy="0" r="1" gradientUnits="userSpaceOnUse" gradientTransform="translate(144.5 125.5) scale(36.1099 66.5183)">
<stop stop-color="#FBB809"/>
<stop offset="1" stop-color="#8B590C"/>
</radialGradient>
<radialGradient id="paint1_radial_107_5" cx="0" cy="0" r="1" gradientUnits="userSpaceOnUse" gradientTransform="translate(144.5 125.5) scale(36.1099 66.5183)">
<stop stop-color="#FBB809"/>
<stop offset="1" stop-color="#8B590C"/>
</radialGradient>
</defs>
</svg>
